<svg xmlns="http://www.w3.org/2000/svg" fill="none">
  <symbol id="hamburger-menu" viewBox="0 0 16 14">
    <path fill-rule="evenodd" clip-rule="evenodd" d="M0 0H16V2H0V0Z" fill="white"/>
    <path fill-rule="evenodd" clip-rule="evenodd" d="M0 6H16V8H0V6Z" fill="white"/>
    <path fill-rule="evenodd" clip-rule="evenodd" d="M8 12H16V14H8V12Z" fill="white"/>
  </symbol>
  <symbol id="go-top-icon" x="0px" y="0px" viewBox="0 0 46.001 46.001" enable-background="new 0 0 100 100" xml:space="preserve">
    <path d="M5.906,34.998c-1.352,1.338-3.541,1.338-4.893,0c-1.35-1.338-1.352-3.506,0-4.846l19.54-19.148
      c1.352-1.338,3.543-1.338,4.895,0l19.539,19.148c1.352,1.34,1.352,3.506,0,4.846c-1.352,1.338-3.541,1.338-4.893,0L23,19.295
      L5.906,34.998z"/>
  </symbol>
  <symbol id="dropdown-icon" viewBox="0 0 8 6" fill="none">
    <path fill-rule="evenodd" clip-rule="evenodd" d="M4 6L0 0L8 0L4 6Z" fill="#4B4B4B"/>
  </symbol>
</svg>