<svg xmlns="http://www.w3.org/2000/svg">
  <symbol id="pinterest-icon" viewBox="0 0 24 24">
    <path d="M12 2C6.477 2 2 6.477 2 12c0 4.236 2.636 7.855 6.356 9.312-.087-.791-.165-2.005.033-2.868.18-.781 1.173-4.971 1.173-4.971s-.299-.602-.299-1.482c0-1.391.807-2.428 1.811-2.428.855 0 1.267.642 1.267 1.407 0 .856-.546 2.141-.828 3.329-.236.991.499 1.802 1.481 1.802 1.778 0 3.144-1.876 3.144-4.579 0-2.394-1.72-4.067-4.177-4.067-2.845 0-4.515 2.134-4.515 4.34 0 .859.331 1.778.744 2.282.082.099.094.186.069.286-.073.299-.237.918-.27 1.043-.041.165-.134.199-.312.12-1.18-.523-1.922-2.173-1.922-3.497 0-2.842 2.068-5.445 5.963-5.445 3.123 0 5.549 2.353 5.549 5.494 0 3.28-2.068 5.932-4.932 5.932-.961 0-1.866-.5-2.17-1.093l-.591 2.25c-.214.855-.795 1.926-1.18 2.579.891.276 1.835.426 2.822.426 5.523 0 10-4.477 10-10S17.523 2 12 2z"/>
  </symbol>

  <symbol id="twitter-icon" viewBox="0 0 24 24">
    <path d="M22.46 6.012c-.77.343-1.597.575-2.463.68.887-.53 1.57-1.37 1.887-2.37-.83.492-1.75.85-2.725 1.042-.782-.834-1.897-1.354-3.13-1.354-2.37 0-4.29 1.92-4.29 4.29 0 .336.038.663.11.977-3.56-.18-6.71-1.885-8.82-4.48-.37.632-.58 1.37-.58 2.15 0 1.48.75 2.79 1.89 3.55-.69-.022-1.34-.21-1.91-.52v.05c0 2.07 1.47 3.8 3.42 4.19-.36.098-.73.15-1.12.15-.27 0-.54-.026-.8-.075.54 1.68 2.1 2.9 4 2.94-1.45 1.14-3.28 1.82-5.27 1.82-.34 0-.68-.02-1.02-.06 1.88 1.2 4.12 1.91 6.52 1.91 7.83 0 12.11-6.49 12.11-12.11 0-.18-.004-.37-.01-.55.83-.6 1.55-1.34 2.12-2.19z"/>
  </symbol>

  <symbol id="facebook-icon" viewBox="0 0 24 24">
    <path d="M22.675 0H1.325C.593 0 0 .593 0 1.325v21.351C0 23.407.593 24 1.325 24H12.82v-9.294H9.692v-3.622h3.128V7.413c0-3.1 1.893-4.788 4.659-4.788 1.325 0 2.463.099 2.795.143v3.24l-1.918.001c-1.504 0-1.795.715-1.795 1.763v2.313h3.587l-.467 3.622h-3.12V24h6.116c.73 0 1.323-.593 1.323-1.325V1.325C24 .593 23.407 0 22.675 0z"/>
  </symbol>
</svg>